{
	"asset":{
		"generator":"Khronos glTF Blender I/O v5.0.21",
		"version":"2.0"
	},
	"extensionsUsed":[
		"KHR_materials_unlit"
	],
	"scene":0,
	"scenes":[
		{
			"name":"Scene",
			"nodes":[
				3
			]
		}
	],
	"nodes":[
		{
			"mesh":0,
			"name":"Mesh_0"
		},
		{
			"children":[
				0
			],
			"name":"34dbcfcc760743d8867f3f131cfe850f.obj.cleaner.gles"
		},
		{
			"children":[
				1
			],
			"name":"RootNode (model correction matrix)"
		},
		{
			"children":[
				2
			],
			"name":"RootNode (gltf orientation matrix)",
			"rotation":[
				0.7071068286895752,
				0.7071068286895752,
				0,
				0
			]
		}
	],
	"materials":[
		{
			"alphaMode":"BLEND",
			"doubleSided":true,
			"extensions":{
				"KHR_materials_unlit":{}
			},
			"name":"lambert4SG",
			"pbrMetallicRoughness":{
				"baseColorTexture":{
					"index":0
				},
				"metallicFactor":0,
				"roughnessFactor":0.9
			}
		}
	],
	"meshes":[
		{
			"name":"Mesh_0",
			"primitives":[
				{
					"attributes":{
						"POSITION":0,
						"NORMAL":1,
						"TEXCOORD_0":2
					},
					"indices":3,
					"material":0
				}
			]
		}
	],
	"textures":[
		{
			"sampler":0,
			"source":0
		}
	],
	"images":[
		{
			"mimeType":"image/png",
			"name":"lambert4SG_baseColor",
			"uri":"textures/lambert4SG_baseColor.png"
		}
	],
	"accessors":[
		{
			"bufferView":0,
			"componentType":5126,
			"count":804,
			"max":[
				96.29925537109375,
				64.70674133300781,
				125.50310516357422
			],
			"min":[
				-14.771596908569336,
				-96.96485900878906,
				-58.12686538696289
			],
			"type":"VEC3"
		},
		{
			"bufferView":1,
			"componentType":5126,
			"count":804,
			"type":"VEC3"
		},
		{
			"bufferView":2,
			"componentType":5126,
			"count":804,
			"type":"VEC2"
		},
		{
			"bufferView":3,
			"componentType":5123,
			"count":3966,
			"type":"SCALAR"
		}
	],
	"bufferViews":[
		{
			"buffer":0,
			"byteLength":9648,
			"byteOffset":0,
			"target":34962
		},
		{
			"buffer":0,
			"byteLength":9648,
			"byteOffset":9648,
			"target":34962
		},
		{
			"buffer":0,
			"byteLength":6432,
			"byteOffset":19296,
			"target":34962
		},
		{
			"buffer":0,
			"byteLength":7932,
			"byteOffset":25728,
			"target":34963
		}
	],
	"samplers":[
		{
			"magFilter":9729,
			"minFilter":9987
		}
	],
	"buffers":[
		{
			"byteLength":33660,
			"uri":"scroll.bin"
		}
	]
}
