{
	"asset":{
		"generator":"Khronos glTF Blender I/O v5.0.21",
		"version":"2.0"
	},
	"scene":0,
	"scenes":[
		{
			"name":"Scene",
			"nodes":[
				6
			]
		}
	],
	"nodes":[
		{
			"mesh":0,
			"name":"Object001_Object001_mtl_0"
		},
		{
			"children":[
				0
			],
			"name":"Node_5",
			"translation":[
				4.100192070007324,
				-12.165748596191406,
				-19.71369743347168
			]
		},
		{
			"children":[
				1
			],
			"name":"Object001"
		},
		{
			"children":[
				2
			],
			"name":"RootNode"
		},
		{
			"children":[
				3
			],
			"name":"Scimitar.fbx",
			"rotation":[
				0.70710688829422,
				0,
				0,
				0.7071066498756409
			]
		},
		{
			"children":[
				4
			],
			"name":"RootNode (model correction matrix)"
		},
		{
			"children":[
				5
			],
			"name":"RootNode (gltf orientation matrix)"
		}
	],
	"materials":[
		{
			"doubleSided":true,
			"name":"Object001_mtl",
			"pbrMetallicRoughness":{
				"baseColorTexture":{
					"index":0
				},
				"metallicFactor":0.550000011920929,
				"roughnessFactor":0.5699999928474426
			}
		}
	],
	"meshes":[
		{
			"name":"Object001_Object001_mtl_0",
			"primitives":[
				{
					"attributes":{
						"POSITION":0,
						"NORMAL":1,
						"TEXCOORD_0":2
					},
					"indices":3,
					"material":0
				}
			]
		}
	],
	"textures":[
		{
			"sampler":0,
			"source":0
		}
	],
	"images":[
		{
			"mimeType":"image/jpeg",
			"name":"Object001_mtl_baseColor",
			"uri":"textures/Object001_mtl_baseColor.jpg"
		}
	],
	"accessors":[
		{
			"bufferView":0,
			"componentType":5126,
			"count":631,
			"max":[
				-2.316143751144409,
				40.572120666503906,
				32.73964309692383
			],
			"min":[
				-5.88424015045166,
				-16.240623474121094,
				19.71369743347168
			],
			"type":"VEC3"
		},
		{
			"bufferView":1,
			"componentType":5126,
			"count":631,
			"type":"VEC3"
		},
		{
			"bufferView":2,
			"componentType":5126,
			"count":631,
			"type":"VEC2"
		},
		{
			"bufferView":3,
			"componentType":5123,
			"count":1239,
			"type":"SCALAR"
		}
	],
	"bufferViews":[
		{
			"buffer":0,
			"byteLength":7572,
			"byteOffset":0,
			"target":34962
		},
		{
			"buffer":0,
			"byteLength":7572,
			"byteOffset":7572,
			"target":34962
		},
		{
			"buffer":0,
			"byteLength":5048,
			"byteOffset":15144,
			"target":34962
		},
		{
			"buffer":0,
			"byteLength":2478,
			"byteOffset":20192,
			"target":34963
		}
	],
	"samplers":[
		{
			"magFilter":9729,
			"minFilter":9987
		}
	],
	"buffers":[
		{
			"byteLength":22672,
			"uri":"sword.bin"
		}
	]
}
